<?xml version="1.0" encoding="UTF-8"?>
<svg width="679.03" height="120.88" version="1.1" viewBox="0 0 679.04 120.88" xml:space="preserve" xmlns="http://www.w3.org/2000/svg">





<g transform="translate(-61.462 -55.943)"><g fill="#51cf66"><g transform="translate(76.272 59.193)"><g transform="translate(-263.4 183.33)" fill="#51cf66"><g transform="rotate(-45 7.5881 79.472)" fill="#51cf66"><circle transform="rotate(45)" cx="374.56" cy="-154.78" r="37.5" fill="#51cf66" stroke-width=".69389"/></g></g></g><path d="m202.34 149.3 11.624-68.475h17.618l13.713 36.508 13.622-36.508h17.618l11.624 68.475h-17.709l-5.903-39.414-16.165 39.414h-7.0836l-15.348-39.414-5.903 39.414zm112.43-6.357-22.522-40.231h19.071l12.442 23.884 12.078-23.884h18.89l-37.416 69.837h-18.435zm64.933-30.695h5.903q9.808 0 9.808-8.5366 0-8.5366-9.808-8.5366h-5.903zm0 37.053h-17.8v-68.475h28.334q11.534 0 17.618 5.9938 6.1754 5.9938 6.1754 16.892 0 10.898-6.1754 16.892-6.0846 5.9938-17.618 5.9938h-10.535zm42.229-46.588h16.438v7.6285q2.6336-4.1775 6.4479-6.357 3.8142-2.2704 8.8999-2.2704 0.63571 0 1.3622 0 0.81733 0 1.8163 0.18163v15.711q-3.2693-1.6347-7.0836-1.6347-5.7214 0-8.6274 3.451-2.8153 3.3602-2.8153 9.8988v19.979h-16.438zm58.212 23.067q0 2.3612 0.81733 4.3591 0.90815 1.9071 2.2704 3.3602 1.453 1.453 3.3602 2.2704 1.9979 0.81733 4.1775 0.81733t4.0867-0.81733q1.9979-0.81734 3.3602-2.2704 1.453-1.453 2.2704-3.3602 0.90815-1.9979 0.90815-4.2683 0-2.1796-0.90815-4.0867-0.81734-1.9979-2.2704-3.451-1.3622-1.453-3.3602-2.2704-1.9071-0.81733-4.0867-0.81733t-4.1775 0.81733q-1.9071 0.81734-3.3602 2.2704-1.3622 1.453-2.2704 3.3602-0.81733 1.9071-0.81733 4.0867zm-17.346-0.18163q0-5.1765 2.0888-9.6264 2.0887-4.5408 5.8122-7.8101 3.7234-3.3602 8.809-5.2673 5.1765-1.9071 11.261-1.9071 5.9938 0 11.079 1.9071 5.1765 1.8163 8.8999 5.1764 3.8142 3.2693 5.903 7.9009 2.0887 4.5408 2.0887 10.08 0 5.5397-2.1796 10.171-2.0887 4.5408-5.8122 7.9009-3.7234 3.2693-8.9907 5.0856-5.1765 1.8163-11.261 1.8163-5.9938 0-11.079-1.8163t-8.8091-5.1765q-3.6326-3.3602-5.7213-7.9917-2.0888-4.7224-2.0888-10.444zm81.824-22.885v69.837h-16.438v-69.837zm-17.527-17.891q0-1.9071 0.72652-3.5418 0.72652-1.7255 1.9979-2.9969t2.9061-1.9979q1.7255-0.72652 3.6326-0.72652 1.9071 0 3.5418 0.72652 1.7255 0.72652 2.9969 1.9979t1.9979 2.9969q0.72652 1.6347 0.72652 3.5418 0 1.9071-0.72652 3.6326-0.72652 1.6347-1.9979 2.9061t-2.9969 1.9979q-1.6347 0.72652-3.5418 0.72652-1.9071 0-3.6326-0.72652-1.6347-0.72652-2.9061-1.9979t-1.9979-2.9061q-0.72652-1.7255-0.72652-3.6326zm62.844 34.419q-0.81733-3.451-3.3602-5.5397-2.5428-2.0887-6.1754-2.0887-3.8142 0-6.2662 1.9979-2.3612 1.9979-2.9969 5.6305zm-19.253 9.5356q0 10.625 9.9896 10.625 5.3581 0 8.0825-4.3591h15.893q-4.8132 15.983-24.066 15.983-5.903 0-10.807-1.7255-4.904-1.8163-8.4458-5.0856-3.451-3.2693-5.3581-7.8101-1.9071-4.5408-1.9071-10.171 0-5.8122 1.8163-10.444 1.8163-4.7224 5.1764-7.9917 3.3602-3.2693 8.0825-4.9948 4.8132-1.8163 10.807-1.8163 5.903 0 10.625 1.8163 4.7224 1.7255 7.9917 5.0856 3.2693 3.3602 4.9948 8.2642 1.7255 4.8132 1.7255 10.898v1.7255zm79.1-10.989q-4.2683-2.9061-8.6274-2.9061-2.3612 0-4.4499 0.81733-1.9979 0.81734-3.5418 2.3612-1.5439 1.453-2.452 3.5418-0.81733 1.9979-0.81733 4.5408 0 2.452 0.81733 4.5408 0.90815 1.9979 2.3612 3.5418 1.5439 1.453 3.6326 2.2704 2.0888 0.81733 4.4499 0.81733 4.6316 0 8.6274-3.1785v13.986q-6.0846 2.6336-11.534 2.6336-5.0856 0-9.7172-1.7255-4.5408-1.7255-8.0825-4.904-3.451-3.2693-5.5397-7.7193-2.0887-4.5408-2.0887-10.08 0-5.5397 1.9979-10.08 1.9979-4.6316 5.4489-7.9009 3.451-3.3602 8.1734-5.1765 4.8132-1.9071 10.262-1.9071 5.9938 0 11.079 2.5428zm27.699-1.3622v32.875h-16.438v-32.875h-5.4489v-13.713h5.4489v-13.986h16.438v13.986h9.3539v13.713z" style="paint-order:fill markers stroke" aria-label="MyProject"/></g></g></svg>
